<?xml version="1.0" standalone="no"?>
<!DOCTYPE svg PUBLIC "-//W3C//DTD SVG 20010904//EN"
 "http://www.w3.org/TR/2001/REC-SVG-20010904/DTD/svg10.dtd">
<svg version="1.0" xmlns="http://www.w3.org/2000/svg"
 width="514.000000pt" height="514.000000pt" viewBox="0 0 514.000000 514.000000"
 preserveAspectRatio="xMidYMid meet">
<metadata>
Created by potrace 1.11, written by Peter Selinger 2001-2013
</metadata>
<g transform="translate(0.000000,514.000000) scale(0.100000,-0.100000)"
fill="#000000" stroke="none">
<path d="M2370 5137 c-3 -3 -34 -7 -70 -11 -36 -3 -92 -11 -125 -16 -33 -6
-76 -13 -95 -16 -240 -37 -710 -226 -921 -370 -161 -110 -244 -180 -425 -359
-196 -194 -321 -367 -446 -618 -101 -203 -217 -552 -242 -732 -9 -64 -17 -108
-23 -135 -10 -39 -13 -510 -3 -565 4 -27 11 -77 14 -110 18 -156 78 -389 144
-560 45 -116 58 -144 104 -226 26 -48 48 -89 48 -93 0 -8 108 -185 146 -239
19 -26 34 -50 34 -54 0 -25 359 -391 463 -472 103 -80 196 -144 312 -212 97
-57 256 -139 270 -139 3 0 24 -9 48 -20 23 -11 103 -40 177 -64 147 -48 246
-71 390 -91 25 -3 56 -8 70 -10 103 -16 167 -20 320 -20 157 0 223 4 340 20
19 2 57 7 84 11 146 18 427 100 596 174 184 80 452 241 575 344 38 32 81 66
95 74 39 25 209 199 277 282 186 231 354 521 448 774 64 174 108 370 131 581
2 22 8 63 14 90 9 50 7 478 -3 525 -5 22 -10 56 -23 154 -12 87 -88 359 -124
441 -5 11 -21 49 -36 85 -207 488 -587 932 -1029 1201 -268 163 -596 289 -865
333 -19 3 -46 8 -59 10 -13 3 -49 8 -80 11 -31 4 -67 9 -81 11 -32 7 -444 16
-450 11z m253 -71 c12 -7 39 -12 60 -11 56 2 56 -17 1 -79 -48 -52 -73 -92
-95 -151 l-11 -30 -13 32 c-18 41 -64 107 -106 153 -44 47 -44 58 -1 65 21 3
48 12 62 19 33 18 75 19 103 2z m442 -39 c11 -3 46 -13 78 -21 32 -9 111 -45
175 -80 107 -59 207 -96 261 -96 31 0 26 -24 -11 -56 -51 -43 -110 -65 -155
-58 -41 6 -83 28 -83 44 0 13 -89 99 -130 125 -28 17 -121 55 -137 55 -2 0 -3
-5 -3 -11 0 -5 20 -19 45 -30 86 -38 204 -144 205 -184 0 -26 -46 -95 -65 -96
-8 0 -28 -1 -45 -1 -61 0 -70 2 -87 21 -10 11 -27 45 -37 76 -21 60 -74 131
-95 124 -8 -3 0 -20 24 -51 98 -125 44 -241 -94 -205 -19 5 -45 16 -59 25
l-23 15 25 24 c14 13 27 32 27 41 6 71 -20 108 -69 97 -46 -10 -65 -37 -66
-98 -1 -43 4 -61 27 -94 83 -120 261 -120 552 2 320 134 567 125 718 -27 74
-74 100 -134 101 -228 1 -159 -91 -270 -261 -314 -115 -30 -197 -2 -366 127
-123 93 -166 117 -244 137 -23 6 -44 14 -47 19 -10 15 55 80 92 92 103 35 138
17 225 -111 49 -73 76 -104 83 -97 4 3 -11 32 -32 64 -71 107 -89 154 -72 186
19 35 71 77 89 72 10 -3 27 -8 40 -10 12 -2 36 -9 53 -15 l31 -10 -2 -79 c-1
-64 3 -87 22 -127 26 -54 33 -34 11 28 -16 45 -15 114 3 150 32 63 134 37 177
-43 15 -30 8 -41 -36 -53 -44 -11 -64 -33 -64 -72 0 -28 7 -43 28 -60 48 -42
119 -23 149 38 21 44 15 137 -12 181 -57 92 -134 129 -275 133 -118 2 -182
-13 -342 -82 -60 -25 -116 -48 -124 -49 -8 -2 -15 -4 -15 -5 0 -2 -9 -4 -120
-28 -57 -13 -121 -19 -175 -18 -74 1 -94 6 -150 34 -73 36 -96 54 -125 97 -87
132 -83 279 11 384 50 56 109 98 161 116 36 13 163 14 208 2z m-747 -38 c116
-43 184 -122 206 -239 8 -38 12 -70 11 -72 -2 -2 -6 -20 -9 -40 -13 -84 -106
-190 -206 -236 -47 -22 -69 -26 -150 -26 -107 0 -180 17 -303 68 -147 62 -351
136 -398 144 -188 35 -350 -52 -378 -203 -18 -98 68 -190 137 -146 7 4 17 24
22 45 7 32 5 38 -21 60 -15 13 -33 26 -39 28 -22 7 12 57 52 77 48 23 101 21
137 -7 21 -16 26 -28 25 -58 -1 -50 -39 -130 -79 -166 -35 -32 -17 -38 25 -8
38 27 77 111 85 180 8 71 30 100 90 120 l49 16 25 -30 c60 -71 57 -103 -20
-203 -55 -72 -62 -83 -51 -83 13 0 51 37 96 95 76 95 98 115 130 115 57 0 105
-20 145 -62 44 -44 45 -58 2 -58 -32 0 -90 -29 -193 -96 -75 -49 -239 -135
-273 -144 -11 -3 -63 -5 -115 -5 -130 0 -185 21 -255 96 -43 48 -54 66 -65
118 -23 109 -16 171 28 256 51 100 237 188 380 180 128 -7 175 -20 417 -115
224 -89 273 -99 399 -89 54 5 135 56 157 99 32 61 29 137 -6 172 -30 30 -69
27 -90 -6 -22 -33 -9 -70 30 -92 62 -34 -14 -114 -108 -114 -39 0 -84 37 -89
73 -6 35 11 86 43 130 32 45 36 59 14 50 -24 -8 -70 -82 -89 -139 -19 -59 -46
-76 -123 -78 -45 -1 -48 1 -75 45 -28 44 -28 46 -12 80 10 18 52 69 95 112 74
73 84 91 36 65 -20 -10 -78 -61 -136 -119 -76 -75 -116 -91 -198 -75 -52 9
-105 66 -101 105 3 22 18 30 122 67 65 24 123 47 130 52 15 12 151 59 223 77
78 20 191 13 271 -16z m281 -500 c23 -37 19 -52 -15 -68 -30 -13 -77 4 -82 30
-3 19 42 69 63 69 8 0 24 -14 34 -31z m-1655 -120 c5 -100 11 -141 27 -171 11
-21 -4 -24 -46 -8 -36 14 -133 19 -190 10 -25 -4 -48 -4 -50 1 -3 4 11 26 30
49 19 23 35 52 35 65 0 19 42 74 59 76 30 4 46 12 83 43 23 20 43 34 45 32 2
-2 5 -45 7 -97z m3285 42 c25 -16 58 -31 73 -35 20 -4 32 -19 49 -56 12 -27
30 -52 38 -55 9 -3 26 -18 37 -33 l21 -27 -81 -1 c-51 -1 -102 -9 -138 -21
-32 -11 -60 -18 -62 -16 -3 3 1 21 8 41 13 38 14 201 1 221 -11 18 6 13 54
-18z m-1414 -76 c35 -6 124 -25 190 -40 42 -10 173 -54 245 -83 120 -48 338
-169 348 -194 2 -5 9 -8 15 -8 30 -1 254 -216 348 -335 51 -65 163 -245 201
-325 93 -197 125 -286 157 -450 45 -229 27 -614 -39 -816 -6 -17 -12 -41 -15
-53 -9 -46 -100 -260 -147 -346 -109 -198 -331 -443 -526 -583 -160 -114 -469
-247 -667 -286 -157 -31 -408 -41 -550 -22 -366 49 -704 195 -968 418 -189
160 -321 335 -447 593 -95 196 -133 330 -167 590 -9 76 -10 301 -1 381 28 248
145 579 272 769 105 158 266 329 408 434 46 34 88 65 93 69 52 39 284 156 390
195 39 14 108 37 155 50 81 23 116 30 220 44 25 3 47 7 49 9 6 5 395 -4 436
-11z m-1860 -202 c101 -53 161 -175 159 -318 -1 -98 -30 -165 -124 -290 -56
-75 -130 -207 -143 -254 -7 -30 -22 -26 -53 14 -21 27 -27 49 -30 96 -5 78 11
105 83 149 67 40 124 97 163 166 32 56 35 64 20 64 -5 0 -16 -15 -25 -34 -35
-73 -167 -181 -233 -190 -25 -4 -93 22 -124 47 l-28 22 26 50 c13 27 28 53 33
58 4 4 50 12 102 18 94 11 140 32 176 79 31 40 19 49 -18 15 -48 -43 -74 -54
-137 -56 -56 -2 -107 21 -116 53 -19 74 4 132 67 164 28 15 31 15 44 -2 7 -10
13 -25 13 -34 0 -21 42 -44 67 -36 10 3 27 19 36 36 16 26 16 33 3 64 -18 44
-42 56 -106 56 -60 0 -103 -17 -146 -57 -38 -36 -59 -78 -78 -162 -28 -125
-12 -207 89 -456 92 -229 115 -360 88 -495 -39 -191 -215 -309 -398 -265 -159
37 -259 167 -255 330 4 162 25 228 133 427 19 35 45 92 57 128 29 81 32 85 61
70 53 -27 69 -58 69 -131 0 -63 -2 -70 -36 -111 -20 -23 -48 -54 -61 -68 -31
-31 -68 -93 -87 -148 -18 -51 -15 -53 12 -8 44 75 141 172 180 179 31 6 79
-14 116 -48 20 -18 23 -29 19 -61 -6 -55 -31 -85 -84 -100 -62 -18 -134 -60
-159 -91 -30 -38 -18 -39 32 -3 84 62 154 77 186 40 36 -42 32 -123 -9 -166
-27 -29 -40 -30 -63 -5 -45 50 -126 21 -126 -44 0 -37 30 -74 62 -76 10 -1 24
-2 31 -3 26 -4 89 15 122 37 77 50 110 176 79 308 -14 61 -49 154 -128 343
-25 59 -50 132 -56 162 -12 59 -15 189 -6 244 25 136 97 240 206 295 72 37
224 36 295 -2z m3539 -6 c89 -41 137 -103 181 -233 20 -58 27 -97 26 -149 -3
-156 -23 -233 -118 -440 -86 -186 -104 -241 -107 -323 -3 -81 21 -150 65 -187
38 -33 100 -58 147 -60 37 -2 49 3 78 30 45 43 43 95 -5 132 -36 28 -90 2 -94
-46 -2 -29 -25 -34 -61 -13 -45 26 -73 73 -71 118 2 31 10 45 40 71 37 32 53
37 104 35 35 -2 97 -37 131 -74 21 -24 29 -28 30 -16 0 9 -20 36 -45 61 -35
34 -60 49 -108 62 -34 9 -67 22 -74 27 -12 10 -16 98 -5 114 4 6 24 20 45 33
33 20 42 22 67 11 40 -16 154 -144 174 -195 6 -13 10 -16 13 -7 6 17 -39 93
-103 172 -104 129 -121 197 -75 288 19 38 85 91 98 79 3 -3 7 -25 9 -49 5 -55
40 -173 57 -190 24 -24 94 -183 108 -243 8 -33 14 -105 14 -160 0 -88 -3 -107
-27 -155 -68 -140 -149 -189 -320 -191 -181 -3 -314 161 -303 373 3 61 37 212
55 246 4 9 27 62 50 117 24 55 46 109 51 120 9 22 25 64 30 80 1 6 8 29 15 51
7 25 11 82 9 141 -2 89 -6 108 -35 167 -22 46 -44 76 -71 96 -38 27 -55 33
-121 44 -40 7 -104 -30 -117 -66 -10 -27 -8 -33 18 -59 35 -35 78 -38 109 -9
12 12 22 25 22 30 0 18 57 10 75 -10 57 -63 26 -181 -50 -196 -41 -7 -86 7
-148 46 -48 30 -61 23 -29 -16 25 -31 78 -56 131 -60 93 -8 134 -13 138 -18 2
-2 6 -27 9 -55 2 -28 5 -55 5 -59 4 -22 -5 -35 -43 -62 -22 -16 -53 -30 -67
-30 -48 1 -112 39 -187 112 -41 39 -76 69 -79 66 -8 -7 63 -96 107 -134 20
-18 64 -47 98 -65 73 -39 92 -67 78 -118 -12 -41 -61 -116 -86 -130 -14 -8
-23 4 -62 82 -25 51 -84 151 -131 222 -103 155 -120 197 -109 277 19 135 57
208 148 280 101 81 193 91 316 35z m-3240 -188 c21 -31 -3 -79 -41 -79 -15 0
-53 36 -53 50 0 17 39 50 59 50 11 0 27 -10 35 -21z m2668 -6 c10 -9 18 -24
18 -34 0 -22 -35 -48 -58 -44 -9 2 -20 4 -23 4 -4 1 -10 12 -13 26 -14 54 35
85 76 48z m-3755 -1242 c46 -41 127 -90 167 -101 14 -4 -1 -18 -61 -57 -71
-46 -100 -73 -146 -137 -14 -19 -15 -19 -32 7 -10 16 -17 45 -17 69 1 23 -6
57 -13 76 -13 29 -13 38 -1 67 8 18 16 53 17 77 1 24 7 52 12 63 10 19 10 19
18 -1 4 -11 29 -40 56 -63z m4895 -12 c0 -29 7 -67 14 -86 13 -29 13 -38 0
-66 -9 -18 -15 -51 -14 -75 1 -75 -22 -73 -82 8 -14 18 -121 99 -139 105 -12
3 -21 10 -21 14 0 4 28 23 63 43 35 20 85 57 113 81 27 25 53 42 58 37 4 -5 8
-32 8 -61z m-4358 -75 c21 -20 20 -43 -1 -66 -43 -48 -103 15 -68 72 9 15 52
12 69 -6z m3789 -25 c6 -21 -2 -33 -31 -48 -18 -10 -25 -9 -41 6 -25 23 -21
55 9 70 26 13 56 0 63 -28z m-3879 -87 c28 -15 64 -47 83 -72 65 -88 104 -267
80 -370 -10 -43 -52 -149 -87 -220 -15 -30 -31 -66 -35 -80 -4 -14 -19 -49
-32 -79 -62 -135 -74 -203 -59 -320 19 -149 122 -247 244 -233 46 6 102 60
102 100 0 52 -56 86 -106 63 -21 -9 -24 -17 -24 -62 l0 -51 -37 5 c-73 10
-121 106 -90 178 26 61 54 82 101 75 58 -7 110 -27 140 -53 32 -28 40 -29 26
-2 -22 41 -107 77 -193 83 -59 4 -84 20 -97 64 -14 53 -13 57 21 97 26 29 38
35 70 35 50 0 124 -37 189 -95 28 -25 53 -45 55 -45 28 0 -55 87 -131 137 -92
60 -97 66 -96 119 1 25 7 55 13 67 14 27 60 77 71 77 4 0 20 -26 36 -57 16
-32 74 -133 130 -225 84 -141 102 -177 108 -224 10 -80 -1 -174 -26 -228 -26
-55 -101 -125 -167 -156 -42 -20 -59 -22 -138 -18 -142 8 -211 51 -270 169
-31 59 -64 192 -59 234 18 153 58 284 146 475 47 104 56 126 71 195 33 145
-17 291 -115 335 -100 44 -204 -39 -140 -112 22 -26 50 -22 82 14 28 30 29 31
54 14 50 -32 75 -104 54 -152 -11 -25 -81 -64 -112 -64 -22 0 -81 34 -118 68
-32 30 -45 26 -22 -6 18 -26 74 -56 152 -83 30 -10 61 -27 68 -36 7 -10 14
-44 14 -76 0 -46 -4 -59 -17 -64 -10 -4 -35 -18 -55 -31 -25 -16 -45 -22 -61
-18 -39 9 -168 158 -190 219 -4 10 -11 16 -16 13 -14 -9 41 -111 94 -172 28
-31 60 -69 73 -83 12 -14 29 -45 38 -68 15 -39 15 -46 -1 -95 -16 -50 -60
-109 -97 -129 -14 -8 -19 0 -33 49 -21 75 -53 155 -108 272 -62 131 -70 162
-73 262 -3 119 34 219 118 314 83 94 246 114 372 46z m4211 -3 c27 -13 73 -47
103 -75 72 -71 95 -135 94 -261 -1 -83 -5 -103 -38 -185 -20 -51 -56 -131 -79
-178 -52 -104 -61 -131 -79 -240 -8 -46 -83 4 -111 72 -23 56 -22 127 1 164
10 16 41 52 69 79 55 55 100 116 134 182 39 77 18 70 -27 -10 -35 -63 -102
-132 -153 -157 -53 -28 -95 -16 -142 39 -21 25 -24 35 -17 70 4 22 12 47 18
54 6 7 46 24 88 37 82 26 166 88 177 132 5 19 1 17 -26 -13 -98 -109 -244
-126 -283 -33 -22 52 11 125 65 145 20 8 29 4 56 -26 41 -44 69 -45 94 -4 37
61 -15 119 -107 119 -129 0 -200 -110 -189 -292 5 -90 5 -90 130 -348 90 -187
101 -228 102 -380 0 -123 0 -126 -35 -193 -47 -93 -118 -169 -190 -206 -80
-39 -182 -41 -256 -5 -96 48 -161 141 -187 269 -25 124 4 222 116 393 102 154
128 202 135 246 4 21 13 41 20 44 16 5 81 -64 88 -95 4 -13 4 -47 2 -75 -6
-56 -2 -51 -132 -163 -53 -45 -116 -122 -116 -141 0 -5 24 15 53 43 61 60 142
122 175 134 29 11 65 -7 109 -54 24 -26 31 -41 27 -63 -2 -16 -5 -38 -7 -49
-7 -50 -21 -58 -108 -65 -83 -6 -141 -30 -187 -77 -20 -20 -6 -16 37 11 42 27
103 46 129 41 9 -1 34 -11 55 -21 37 -18 39 -21 42 -94 2 -48 -32 -94 -87
-117 -29 -13 -38 -3 -38 42 0 48 -63 64 -105 25 -23 -22 -27 -61 -11 -101 18
-42 118 -67 175 -43 59 25 141 130 162 209 12 44 14 156 4 225 -3 25 -31 106
-61 180 -129 313 -138 344 -135 459 4 166 60 275 171 335 29 16 69 31 89 33
20 3 38 7 41 10 11 11 99 -6 145 -28z m-3587 -1221 c7 -7 12 -21 12 -33 0 -29
-19 -45 -52 -45 -36 0 -53 29 -36 64 12 28 54 36 76 14z m2687 -13 c30 -29 31
-49 5 -75 -34 -34 -79 -20 -95 31 -9 26 20 69 46 69 11 0 31 -11 44 -25z
m-2503 -152 c24 -9 105 -56 180 -103 75 -48 175 -102 222 -120 47 -19 86 -39
86 -45 0 -20 -54 -64 -98 -79 -82 -29 -132 -8 -195 84 -47 68 -82 104 -127
129 -49 28 -52 16 -5 -22 47 -37 111 -124 129 -173 17 -49 5 -83 -46 -132 -30
-28 -37 -31 -47 -18 -7 8 -26 18 -42 21 -32 7 -43 22 -53 75 -4 19 -9 45 -12
58 -12 62 -73 166 -89 151 -2 -3 7 -28 21 -57 46 -96 42 -195 -9 -207 -41 -11
-103 12 -136 51 l-32 35 26 30 c35 43 37 89 3 125 -15 17 -26 20 -46 15 -66
-18 -89 -123 -46 -210 49 -97 119 -137 249 -140 113 -3 267 35 442 108 181 75
247 91 372 88 91 -3 114 -7 162 -30 75 -36 139 -94 173 -157 61 -112 26 -271
-84 -374 -73 -68 -144 -98 -242 -101 -100 -4 -158 12 -327 87 -214 95 -251
110 -292 113 -56 4 -62 12 -42 46 24 40 106 79 173 83 50 3 55 1 104 -41 28
-25 58 -52 66 -61 57 -64 169 -127 211 -120 24 4 23 5 -5 17 -43 17 -145 93
-191 140 -53 55 -54 99 -6 160 33 42 35 43 85 38 85 -8 92 -15 102 -94 6 -49
52 -130 89 -159 36 -27 85 -47 85 -34 0 5 -9 12 -21 15 -27 9 -77 61 -99 105
-19 38 -20 103 -1 138 41 77 176 66 211 -18 12 -29 12 -34 -5 -46 -10 -7 -22
-11 -26 -8 -14 8 -41 -44 -34 -66 10 -32 46 -60 70 -56 112 20 125 181 22 260
-74 56 -208 78 -309 50 -29 -8 -62 -17 -72 -19 -11 -3 -56 -23 -100 -46 -45
-23 -106 -55 -136 -70 -80 -42 -224 -80 -312 -84 -180 -9 -344 78 -413 219
-20 41 -26 68 -26 127 -1 117 18 168 95 243 99 96 230 126 348 79z m2508 -8
c62 -16 86 -30 143 -84 65 -60 100 -135 100 -216 0 -216 -151 -359 -388 -364
-146 -3 -186 8 -475 135 -174 76 -177 77 -300 78 -129 1 -162 -9 -231 -71 -64
-58 -72 -171 -14 -209 22 -14 32 -15 64 -5 44 13 53 28 45 71 -4 20 -16 34
-39 44 -26 12 -32 21 -28 36 7 27 60 66 101 75 30 6 37 3 73 -34 44 -47 47
-69 24 -148 -16 -53 -63 -105 -111 -123 -28 -11 -33 -30 -6 -25 9 2 22 4 29 4
6 1 30 19 54 41 36 34 47 54 74 137 30 96 32 98 75 120 87 41 93 40 124 -29
39 -85 34 -112 -39 -191 -29 -32 -106 -92 -140 -110 -48 -26 -5 -19 50 7 29
14 84 57 130 103 103 102 120 113 172 113 60 0 122 -33 161 -84 42 -57 41 -66
-11 -66 -78 0 -155 -26 -367 -123 -50 -23 -110 -42 -165 -53 -11 -2 -56 -5
-101 -6 -68 -1 -89 3 -135 25 -70 33 -101 63 -136 128 -60 115 -57 226 8 333
70 115 169 158 342 149 82 -4 170 -28 301 -82 145 -61 250 -103 261 -106 152
-33 278 -25 371 23 76 39 135 129 128 194 -5 52 -33 98 -66 112 -76 32 -120
-49 -59 -108 33 -31 33 -41 6 -82 -27 -42 -45 -53 -88 -54 -49 0 -73 13 -93
51 -31 61 -8 134 68 213 33 36 37 57 6 30 -92 -76 -111 -112 -123 -234 -3 -30
-11 -61 -18 -68 -19 -18 -129 -40 -134 -26 -2 7 -22 30 -43 52 -36 37 -39 42
-30 73 22 75 115 179 207 231 48 27 73 48 59 48 -3 0 -34 -13 -68 -30 -80 -37
-153 -99 -209 -174 -54 -73 -88 -95 -137 -89 -36 5 -112 41 -112 53 0 3 -9 16
-20 27 -17 19 -18 22 -3 35 9 7 18 12 20 10 7 -7 93 11 93 19 0 5 6 9 13 9 6
0 59 34 117 76 88 63 186 118 260 147 25 10 162 5 210 -8z m-2970 -130 c0 -4
-7 -20 -16 -36 -10 -20 -15 -54 -14 -102 2 -117 1 -127 -15 -127 -8 0 -27 13
-41 30 -15 16 -36 32 -48 36 -23 7 -86 63 -86 76 0 5 -13 27 -30 49 -16 23
-28 45 -25 49 2 4 42 5 87 3 58 -3 95 0 123 11 43 16 65 19 65 11z m3418 -57
c45 0 82 -3 82 -8 0 -5 -17 -26 -38 -47 -21 -21 -46 -50 -55 -65 -10 -16 -22
-28 -28 -28 -5 0 -34 -18 -64 -41 -56 -42 -78 -44 -68 -6 7 29 5 173 -2 197
-5 16 -1 17 42 8 26 -5 85 -10 131 -10z m-1762 -209 c17 -19 17 -23 3 -47 -27
-49 -88 -36 -96 21 -7 44 59 63 93 26z m85 -564 c47 -49 38 -61 -44 -55 -18 1
-36 -6 -48 -19 -24 -26 -46 -26 -83 -2 -23 15 -40 18 -81 14 -61 -6 -81 9 -44
35 67 46 119 107 141 162 l22 58 54 -81 c29 -45 66 -96 83 -112z"/>
<path d="M1415 3672 c-3 -7 0 -22 5 -32 8 -15 20 -18 63 -16 108 5 216 -38
249 -97 32 -59 35 -142 33 -967 -1 -642 -4 -835 -14 -870 -17 -58 -73 -114
-131 -130 -25 -7 -80 -13 -122 -14 -43 -1 -79 -3 -79 -6 -7 -25 -4 -50 5 -53
18 -6 1276 0 1331 7 133 16 264 43 359 73 421 132 705 467 751 887 5 50 6 231
1 266 -2 14 -7 45 -10 70 -17 139 -97 327 -193 455 -58 78 -159 179 -212 213
-14 9 -28 19 -31 22 -21 24 -251 124 -310 135 -3 1 -18 4 -35 8 -16 4 -45 9
-64 12 -19 3 -37 8 -41 10 -4 2 -34 7 -67 10 -33 3 -69 7 -81 10 -65 12 -321
18 -829 19 -466 1 -574 -1 -578 -12z m1265 -126 c14 -3 38 -9 55 -12 16 -3 64
-16 105 -30 326 -109 539 -358 604 -704 17 -94 18 -332 1 -425 -7 -38 -16 -86
-20 -105 -3 -19 -11 -40 -17 -47 -6 -7 -8 -13 -4 -13 9 0 -41 -109 -86 -184
-82 -139 -274 -299 -426 -357 -185 -69 -374 -86 -612 -55 -25 4 -54 8 -65 10
-11 2 -39 7 -61 11 l-42 6 0 934 c0 855 2 935 17 939 39 12 117 27 170 33 31
3 58 7 60 9 6 5 294 -3 321 -10z"/>
<path d="M301 2234 c0 -11 3 -14 6 -6 3 7 2 16 -1 19 -3 4 -6 -2 -5 -13z"/>
</g>
</svg>
