<?xml version="1.0" standalone="no"?>
<!DOCTYPE svg PUBLIC "-//W3C//DTD SVG 20010904//EN"
 "http://www.w3.org/TR/2001/REC-SVG-20010904/DTD/svg10.dtd">
<svg version="1.0" xmlns="http://www.w3.org/2000/svg"
 width="128.000000pt" height="128.000000pt" viewBox="0 0 128.000000 128.000000"
 preserveAspectRatio="xMidYMid meet">
<metadata>
Created by potrace 1.11, written by Peter Selinger 2001-2013
</metadata>
<g transform="translate(0.000000,128.000000) scale(0.100000,-0.100000)"
fill="#000000" stroke="none">
<path d="M469 1256 c-219 -63 -372 -212 -446 -436 -28 -85 -25 -272 5 -368 33
-105 95 -204 177 -279 115 -107 242 -161 400 -170 183 -10 347 52 479 182 122
120 182 250 193 422 8 121 -8 196 -64 312 -112 228 -340 366 -594 360 -42 -1
-109 -11 -150 -23z m195 -21 c-19 -30 -23 -30 -40 -7 -21 26 -17 32 21 32 l35
0 -16 -25z m163 -8 c15 -9 36 -18 46 -21 23 -7 22 -22 -3 -29 -12 -3 -33 6
-56 24 -20 16 -42 29 -48 29 -6 0 4 -9 22 -20 20 -12 32 -28 32 -41 0 -19 -4
-21 -30 -15 -18 3 -30 1 -30 -5 0 -6 -10 -9 -22 -7 -15 2 -23 10 -23 22 0 25
-23 33 -31 11 -9 -22 24 -55 54 -55 14 0 57 11 97 25 79 27 125 26 165 -3 14
-11 26 -29 28 -41 2 -11 8 -21 13 -21 6 0 7 5 4 10 -11 19 15 10 37 -12 l21
-21 -22 -9 c-25 -9 -45 -2 -36 13 4 5 1 9 -4 9 -6 0 -11 -6 -11 -13 0 -26 -40
-52 -78 -51 -34 1 -140 57 -141 76 -1 4 9 10 21 14 17 5 27 0 46 -22 17 -20
20 -22 13 -7 -18 36 -14 53 14 53 14 0 25 -5 25 -12 0 -9 3 -9 12 0 8 8 17 8
31 0 20 -10 20 -11 3 -24 -26 -19 -14 -49 14 -34 26 14 25 44 -2 70 -28 26
-82 25 -147 -2 -120 -50 -221 4 -175 94 24 47 90 53 161 15z m-238 8 c51 -26
56 -81 10 -119 -39 -33 -66 -33 -165 2 -84 30 -84 30 -126 19 -32 -8 -47 -49
-28 -72 19 -23 33 -18 26 10 -8 30 16 44 39 25 12 -10 15 -10 15 3 0 21 26 29
40 11 10 -11 9 -20 -4 -41 l-17 -28 25 28 c28 30 48 34 66 12 8 -10 9 -15 2
-15 -6 0 -33 -13 -59 -30 -75 -48 -163 -34 -163 26 0 13 -5 24 -11 24 -7 0 -9
-10 -5 -26 5 -17 3 -23 -4 -19 -19 12 -10 -6 14 -28 41 -36 40 -76 -3 -146
-21 -33 -41 -58 -44 -54 -16 15 -5 45 25 74 l33 31 -32 -23 c-35 -24 -67 -20
-61 8 2 10 14 19 28 21 14 2 29 7 33 12 5 4 -3 5 -17 3 -31 -6 -45 19 -25 43
11 14 13 14 21 -1 5 -8 13 -13 19 -10 15 10 10 23 -11 35 -17 9 -25 6 -45 -14
-31 -31 -31 -54 0 -150 31 -95 31 -128 3 -160 -55 -60 -149 -18 -143 65 2 36
54 141 67 137 19 -7 17 -36 -3 -62 -23 -29 -25 -44 -3 -22 8 9 22 16 30 16 22
0 30 -31 11 -44 -14 -11 -14 -13 1 -22 22 -15 8 -47 -17 -39 -24 7 -36 -9 -18
-23 19 -16 53 -4 64 21 11 25 2 69 -28 134 -35 78 -21 155 33 178 18 7 36 11
40 9 5 -3 8 -1 8 5 0 5 -10 11 -21 13 -21 3 -21 4 6 30 14 15 33 24 41 21 8
-3 14 1 14 9 0 24 36 49 79 55 30 4 61 -2 116 -22 107 -39 172 -22 149 39 -8
22 -26 9 -22 -17 2 -16 -3 -23 -19 -25 -16 -2 -23 2 -23 13 0 15 -1 15 -16 1
-12 -12 -20 -13 -35 -5 -20 10 -18 19 10 54 9 11 2 8 -17 -8 -38 -30 -54 -33
-71 -13 -14 17 -9 21 62 47 63 22 90 23 126 4z m61 -125 c0 -5 -7 -10 -16 -10
-8 0 -12 5 -9 10 3 6 10 10 16 10 5 0 9 -4 9 -10z m136 -53 c103 -38 184 -105
233 -191 103 -183 79 -384 -62 -536 -201 -215 -578 -159 -712 105 -112 222
-31 481 185 593 53 28 118 49 170 54 41 5 142 -9 186 -25z m350 -42 c42 -27
45 -111 6 -196 -25 -52 -29 -76 -18 -106 9 -27 54 -42 66 -22 13 20 2 30 -28
27 -38 -4 -43 29 -6 38 22 6 24 8 10 16 -9 5 -16 15 -16 23 0 24 20 28 42 8
20 -18 20 -17 -1 18 -22 37 -20 69 5 69 8 0 14 -8 14 -18 0 -10 7 -27 15 -38
8 -12 18 -40 23 -62 22 -97 -73 -158 -135 -87 -30 34 -29 72 4 153 29 74 32
126 7 153 -20 22 -60 25 -67 5 -7 -18 12 -26 35 -15 20 11 33 -4 24 -28 -4
-10 -15 -14 -36 -11 -16 2 -27 1 -24 -4 3 -4 16 -8 29 -8 14 0 29 -8 35 -20 8
-15 6 -21 -11 -30 -11 -6 -26 -8 -33 -3 -6 4 -4 0 7 -9 19 -18 20 -49 2 -55
-6 -2 -27 25 -47 60 -42 73 -41 104 3 142 31 26 56 26 95 0z m-826 -45 c0 -5
-4 -10 -10 -10 -5 0 -10 5 -10 10 0 6 5 10 10 10 6 0 10 -4 10 -10z m670 0 c0
-5 -4 -10 -10 -10 -5 0 -10 5 -10 10 0 6 5 10 10 10 6 0 10 -4 10 -10z m-906
-320 c6 0 -2 -12 -17 -26 -16 -14 -30 -24 -32 -22 -6 5 -9 36 -7 66 l2 23 22
-21 c12 -11 27 -20 32 -20z m1188 -29 c-7 -19 -7 -19 -32 1 l-24 20 24 18 c24
18 25 18 32 -1 4 -10 4 -28 0 -38z m-1082 25 c0 -11 -19 -15 -25 -6 -3 5 1 10
9 10 9 0 16 -2 16 -4z m940 -6 c0 -5 -4 -10 -10 -10 -5 0 -10 5 -10 10 0 6 5
10 10 10 6 0 10 -4 10 -10z m-955 -35 c37 -36 36 -77 -1 -162 -42 -94 -31
-163 25 -163 27 0 47 21 34 34 -12 12 -33 6 -33 -9 0 -8 -5 -15 -10 -15 -17 0
-24 31 -12 50 8 13 7 21 -6 34 -15 15 -15 18 -2 26 8 6 23 8 33 6 18 -4 18 -4
2 14 -16 18 -15 50 2 50 18 -1 73 -109 73 -143 0 -64 -79 -100 -130 -59 -36
29 -38 95 -5 175 34 86 35 124 5 149 -17 14 -26 16 -36 7 -22 -18 -16 -32 10
-25 28 7 43 -17 22 -36 -10 -9 -10 -17 -3 -30 16 -24 -8 -51 -34 -38 -18 10
-18 9 -1 -20 16 -27 16 -30 0 -46 -15 -15 -18 -13 -38 32 -39 88 -39 130 0
172 28 30 74 29 105 -3z m1063 -8 c30 -28 28 -71 -5 -153 -24 -58 -29 -64 -40
-48 -19 26 -16 40 15 69 l27 26 -30 -15 c-26 -14 -32 -14 -44 -1 -12 12 -12
17 -1 30 12 15 12 18 -3 27 -14 7 -15 13 -6 30 8 15 14 17 22 9 15 -15 27 -14
27 3 0 26 -42 31 -61 7 -22 -27 -17 -70 15 -137 22 -46 30 -82 27 -126 -1 -9
-13 -30 -27 -47 -65 -77 -162 -2 -129 99 4 14 18 39 31 56 13 17 24 37 24 44
0 10 3 10 15 0 22 -18 18 -37 -13 -68 -15 -15 -21 -22 -13 -16 33 23 40 24 55
9 21 -21 9 -45 -23 -46 -21 -1 -22 -2 -6 -6 27 -7 36 -23 24 -45 -9 -17 -11
-17 -26 -3 -11 12 -19 13 -26 6 -16 -16 15 -45 39 -37 49 15 59 90 23 171 -40
91 -24 178 35 187 29 5 47 -1 74 -25z m-923 -287 c3 -5 1 -10 -4 -10 -6 0 -11
5 -11 10 0 6 2 10 4 10 3 0 8 -4 11 -10z m675 -11 c0 -5 -4 -9 -10 -9 -5 0
-10 7 -10 16 0 8 5 12 10 9 6 -3 10 -10 10 -16z m-578 -51 c37 -18 67 -37 67
-41 1 -4 -9 -12 -21 -16 -16 -7 -26 -5 -34 5 -16 20 -21 18 -20 -8 1 -36 -30
-34 -42 1 -6 17 -13 31 -16 31 -3 0 -3 -7 0 -15 11 -27 -3 -47 -25 -36 -13 8
-17 18 -13 37 4 20 1 25 -9 22 -24 -8 -23 -54 3 -72 31 -22 55 -20 145 10 91
30 148 28 175 -6 33 -41 15 -100 -38 -125 -35 -16 -57 -12 -160 31 -36 15 -37
17 -19 30 22 16 41 18 50 4 3 -5 20 -19 38 -30 l32 -22 -28 26 c-33 30 -32 60
1 64 16 2 22 -2 22 -15 0 -15 2 -14 16 5 12 18 19 20 35 11 16 -8 18 -13 9
-24 -15 -18 -4 -36 15 -28 18 6 20 47 2 61 -29 24 -72 22 -132 -6 -77 -36
-141 -41 -177 -13 -62 49 -35 145 42 151 8 0 45 -14 82 -32z m597 17 c18 -5
41 -44 41 -70 0 -27 -22 -63 -47 -74 -38 -18 -89 -13 -152 14 -69 29 -107 33
-138 16 -30 -16 -32 -61 -3 -61 21 0 27 15 10 25 -14 9 -12 22 5 29 8 3 21 -1
29 -10 9 -9 17 -10 21 -4 9 15 42 12 48 -4 3 -8 -4 -27 -15 -43 l-22 -28 30
28 c33 30 65 35 84 12 7 -8 11 -15 9 -16 -2 0 -12 -2 -23 -4 -10 -2 -40 -13
-67 -24 -79 -34 -126 -26 -148 27 -15 36 -2 74 33 97 29 19 91 13 146 -15 47
-24 95 -31 131 -18 34 12 51 44 37 71 -13 24 -31 10 -24 -19 4 -13 4 -24 2
-24 -2 0 -11 -3 -20 -6 -11 -4 -19 2 -25 17 -9 23 -10 23 -10 3 -1 -26 -28
-39 -47 -23 -21 17 -17 28 17 60 17 16 28 29 25 29 -3 0 -24 -16 -45 -36 -36
-32 -42 -34 -63 -23 -15 8 -18 14 -10 17 7 2 38 19 69 38 54 32 72 35 122 19z
m-767 -57 c-5 -34 -12 -35 -40 -5 -26 27 -24 32 15 33 26 1 29 -2 25 -28z
m871 6 c-3 -7 -16 -20 -29 -29 -24 -15 -24 -15 -24 15 0 27 3 30 29 28 18 -1
27 -7 24 -14z m-453 -44 c0 -5 -4 -10 -10 -10 -5 0 -10 5 -10 10 0 6 5 10 10
10 6 0 10 -4 10 -10z m17 -131 c12 -14 11 -17 -7 -22 -11 -3 -29 -3 -40 0 -19
5 -19 6 3 35 14 18 23 24 26 16 2 -7 10 -20 18 -29z"/>
<path d="M750 1191 c0 -6 4 -13 10 -16 6 -3 7 1 4 9 -7 18 -14 21 -14 7z"/>
<path d="M350 910 c0 -6 13 -10 30 -10 57 0 61 -21 58 -269 -2 -140 -7 -224
-14 -231 -6 -6 -25 -12 -42 -13 -18 -1 -32 -6 -32 -10 0 -5 89 -7 198 -5 220
5 260 14 328 72 60 51 88 116 87 201 -1 79 -18 127 -64 180 -41 46 -79 66
-159 81 -77 15 -390 18 -390 4z m366 -40 c53 -18 118 -88 133 -143 17 -58 10
-161 -13 -205 -20 -40 -58 -77 -99 -99 -35 -19 -183 -29 -202 -13 -8 6 -13
375 -6 457 2 22 124 24 187 3z"/>
<path d="M736 82 l-19 -27 24 22 c12 12 21 24 18 27 -2 2 -13 -8 -23 -22z"/>
</g>
</svg>
